<?xml version="1.0" encoding="utf-8"?>
<!-- Generator: Adobe Illustrator 16.0.0, SVG Export Plug-In . SVG Version: 6.00 Build 0)  -->
<!DOCTYPE svg PUBLIC "-//W3C//DTD SVG 1.1//EN" "http://www.w3.org/Graphics/SVG/1.1/DTD/svg11.dtd">
<svg version="1.1" id="Layer_1" xmlns="http://www.w3.org/2000/svg" xmlns:xlink="http://www.w3.org/1999/xlink" x="0px" y="0px"
	 width="480px" height="480px" viewBox="0 0 480 480" style="enable-background:new 0 0 480 480;" xml:space="preserve">
<g id="Tile">
	<g>
		<g>
			<g>
				<polygon style="fill:#009444;" points="434.68,14.68 450.643,34.361 450.643,454.68 30.643,454.68 30.643,34.361 46.605,14.68 
									"/>
				<rect x="30.643" y="34.361" style="fill:#006838;" width="420" height="420.319"/>
			</g>
		</g>
	</g>
</g>
<g id="Text">
	<g>
		<g style="opacity:0.8;">
			<polygon style="fill:#7B7C7F;" points="287.023,99.879 287.023,198.305 194.267,198.305 194.267,99.879 101.517,99.879 
				101.517,395.159 194.267,395.159 194.267,296.732 287.023,296.732 287.023,395.159 379.771,395.159 379.771,99.879 			"/>
		</g>
		<g>
			<polygon style="fill:#FFFFFF;" points="287.023,96.879 287.023,195.305 194.267,195.305 194.267,96.879 101.517,96.879 
				101.517,392.159 194.267,392.159 194.267,293.732 287.023,293.732 287.023,392.159 379.771,392.159 379.771,96.879 			"/>
		</g>
	</g>
</g>
</svg>
